<svg xmlns="http://www.w3.org/2000/svg" xmlns:xlink="http://www.w3.org/1999/xlink" width="28" height="54" viewBox="0 0 28 54">
    <defs>
        <path id="a" d="M0 0h60v60H0z"/>
    </defs>
    <g fill="none" fill-rule="evenodd" transform="translate(-16 -3)">
        <mask id="b" fill="#fff">
            <use xlink:href="#a"/>
        </mask>
        <g mask="url(#b)">
            <path fill="#FEDD7D" stroke="#844C22" d="M24.923 35.887C24.297 37.657 17 39.319 17 46.01c0 6.693 4.834 9.66 13.228 9.66 9.943 0 13.228-3.387 13.228-9.29 0-5.903-4.872-5.511-7.027-10-2.154-4.488-.597-3.68-2.298-3.68-.835 0-.916.612-1.147.97-.239.37-1.029 0-3.137 0-.38 0-.736-.027-1.064-.08a3.507 3.507 0 0 0-3.86 2.296z"/>
            <path fill="#F8A51C" stroke="#844C22" stroke-linecap="round" stroke-linejoin="round" d="M27.185 33.45c.413-1.274.413-2.588 0-3.945-.413-1.356-.808-2.978-1.185-4.865 2.019 3.368 3.441 4.88 4.268 4.537.826-.344 1.726-3.07 2.7-8.177L34 30.959c.176.9.176 1.475 0 1.725-.504.715-1.851.765-2.919.765h-3.896z"/>
            <path fill="#7AB974" stroke="#844C22" stroke-linecap="round" stroke-linejoin="round" d="M28 26.898V13.733c0-2.803.557-6.38 1.67-10.733.643 6.33.964 10.312.964 11.949v4.512c.632-4.859 1.036-7.644 1.21-8.354.15-.612.392-1.845.724-3.7 1.292 2.502 1.71 5.317 1.254 8.444-.456 3.127-.663 4.993-.62 5.596C32.443 26.482 31.587 29 30.634 29c-.953 0-1.831-.7-2.634-2.102z"/>
            <path fill="#D0AF51" d="M23.706 37.646c-2.468 4.174-3.523 7.398-3.166 9.672.656 4.182 2.91 4.966 4.904 5.771 2.044.826 8.639 1.34 10.624-.403 1.986-1.741 2.82-2.814 2.511-6.853-.308-4.04-3.091-4.728-3.94-7.276a82.984 82.984 0 0 0-1.629-4.507L34.025 33h.615c.952 3.217 2.025 5.288 3.218 6.213 1.79 1.388 5.38 3.67 5.13 6.896-.333 5.619-1.963 6.365-5.13 7.938-3.166 1.572-12.086 1.144-14.152.267-2.065-.877-4.855-.942-6.117-6.676-.493-4.47 1.603-6.683 2.95-7.67l3.167-2.322z"/>
            <path fill="#F6EDD3" d="M27.678 34.189c-.195 4.44-.888 7.323-2.078 8.645-1.785 1.984-2.574 4.665.312 5.79 2.887 1.126 6.662-.32 6.015-3.777-.648-3.458-2.388-3.319-2.645-5.711-.17-1.595-.085-3.244.257-4.947h-1.861z"/>
            <path fill="#FFDDA5" d="M28.022 29v3h.901v-2.327c-.073.028-.178-.006-.316-.103-.346-.241-.54-.432-.585-.57z"/>
            <path fill="#D3EFD0" d="M29.391 6.332c-.616 3.43-.924 6.005-.924 7.723 0 1.719.016 5.938.049 12.657l1.18 1.601c-.165-6.215-.266-10.695-.305-13.44a318.58 318.58 0 0 1 0-8.541z"/>
        </g>
    </g>
</svg>
